<svg width="174" height="46" viewBox="0 0 174 46" fill="none" xmlns="http://www.w3.org/2000/svg">
<g id="Group 350">
<g id="Group 244">
<path id="refresh" d="M25.792 15.7862L25.7923 15.7863C26.7929 16.2387 27.6489 16.8843 28.3645 17.7271L29.2456 18.7649V17.4035V15.1052H30.2807V21.228H24.1579V20.1929H27.9316H28.7932L28.3657 19.4449C27.7794 18.4188 26.9742 17.6085 25.956 17.0212L25.9559 17.0212C24.9373 16.434 23.829 16.1403 22.6404 16.1403C20.8133 16.1403 19.2442 16.7855 17.9622 18.0675C16.6803 19.3494 16.0351 20.9186 16.0351 22.7456C16.0351 24.5726 16.6803 26.1417 17.9622 27.4237C19.2442 28.7057 20.8133 29.3508 22.6404 29.3508C24.0485 29.3508 25.3285 28.9463 26.4657 28.1393C27.5041 27.4023 28.2629 26.4464 28.7355 25.2807H29.851C29.3591 26.6884 28.517 27.8538 27.319 28.7871C25.9492 29.8543 24.3956 30.3859 22.6404 30.3859C20.4976 30.3859 18.7008 29.648 17.2193 28.1666C15.7379 26.6851 15 24.8883 15 22.7456C15 20.6029 15.7379 18.806 17.2193 17.3246C18.7008 15.8431 20.4976 15.1052 22.6404 15.1052C23.7392 15.1052 24.7883 15.3318 25.792 15.7862Z" fill="#2A5C81" stroke="#2A5C81"/>
<circle id="Ellipse 80" cx="22.8947" cy="23" r="21.8947" stroke="#2A5C81" stroke-width="2"/>
</g>
<g id="Group 245">
<path id="download" d="M79.1055 28.8508V26.2982H80.1406V28.8508V29.3508H80.6406H92.8511H93.3511V28.8508V26.2982H94.3862V28.8508C94.3862 29.2768 94.2405 29.6293 93.9353 29.9351C93.6295 30.2402 93.2771 30.3859 92.8511 30.3859H80.6406C80.2144 30.3859 79.8624 30.2402 79.5573 29.9351L79.2038 30.2886L79.5573 29.9351C79.2514 29.6291 79.1055 29.2767 79.1055 28.8508ZM82.3591 21.7219L83.0889 20.966L85.3747 23.2518L86.2283 24.1053V22.8982V15.1052H87.2634V22.8982V24.1053L88.1169 23.2518L90.4027 20.966L91.1326 21.7219L86.7458 26.1086L82.3591 21.7219Z" fill="#2A5C81" stroke="#2A5C81"/>
<circle id="Ellipse 81" cx="87.0002" cy="23" r="21.8947" stroke="#2A5C81" stroke-width="2"/>
</g>
<circle id="Ellipse 81_2" cx="151" cy="23" r="22" stroke="#2A5C81" stroke-width="2"/>
<g id="share">
<mask id="mask0_219_7459" style="mask-type:alpha" maskUnits="userSpaceOnUse" x="140" y="13" width="19" height="20">
<rect id="Bounding box" x="140.922" y="14.342" width="17.3158" height="17.3158" fill="#2A5C81" stroke="#2A5C81"/>
</mask>
<g mask="url(#mask0_219_7459)">
<path id="share_2" d="M153.319 19.7847C153.586 19.8931 153.866 19.9473 154.158 19.9473C154.794 19.9473 155.335 19.7247 155.78 19.2795C156.225 18.8344 156.448 18.2938 156.448 17.6578C156.448 17.0219 156.225 16.4813 155.78 16.0361C155.335 15.5909 154.794 15.3683 154.158 15.3683C153.522 15.3683 152.982 15.5909 152.537 16.0361C152.091 16.4813 151.869 17.0219 151.869 17.6578C151.869 17.7469 151.875 17.8392 151.888 17.9348M153.319 19.7847L151.945 18.192C151.92 18.1157 151.901 18.03 151.888 17.9348M153.319 19.7847C153.052 19.6769 152.81 19.5276 152.594 19.3368L153.319 19.7847ZM151.888 17.9348L152.384 17.8686M151.888 17.9348L152.384 17.8689C152.384 17.8688 152.384 17.8687 152.384 17.8686M152.384 17.8686C152.373 17.7931 152.369 17.723 152.369 17.6578C152.369 17.153 152.54 16.74 152.89 16.3897C153.24 16.0393 153.653 15.8683 154.158 15.8683C154.663 15.8683 155.076 16.0393 155.426 16.3897C155.777 16.74 155.948 17.153 155.948 17.6578C155.948 18.1627 155.777 18.5756 155.426 18.926C155.076 19.2763 154.663 19.4473 154.158 19.4473C153.929 19.4473 153.713 19.4052 153.507 19.3214L153.506 19.3211C153.292 19.2345 153.098 19.1152 152.925 18.9618L152.654 18.7232L152.342 18.9045L146.962 22.0335L146.611 22.238L146.739 22.6238C146.753 22.6651 146.766 22.7193 146.775 22.7888M152.384 17.8686C152.393 17.9383 152.406 17.9925 152.419 18.0339L152.548 18.4198L152.197 18.6243L146.816 21.7532L146.504 21.9345L146.234 21.6959C146.06 21.5425 145.867 21.4229 145.652 21.3357M146.775 22.7888L145.84 20.8722M146.775 22.7888C146.785 22.8644 146.79 22.9347 146.79 22.9999C146.79 23.0652 146.785 23.1351 146.775 23.2099L146.775 23.2103C146.766 23.2806 146.753 23.3349 146.739 23.376L146.611 23.7619L146.962 23.9664L152.342 27.0953L152.654 27.2766L152.925 27.038C153.099 26.8846 153.292 26.7649 153.507 26.6778C153.713 26.5945 153.929 26.5526 154.158 26.5526C154.663 26.5526 155.076 26.7235 155.426 27.0739C155.777 27.4242 155.948 27.8372 155.948 28.342C155.948 28.8469 155.777 29.2598 155.426 29.6102C155.076 29.9605 154.663 30.1315 154.158 30.1315C153.653 30.1315 153.24 29.9605 152.89 29.6102C152.54 29.2598 152.369 28.8469 152.369 28.342C152.369 28.2769 152.373 28.2067 152.384 28.1313M146.775 22.7888L152.384 28.1313M145.652 21.3357C145.652 21.3358 145.653 21.3358 145.653 21.3359L145.84 20.8722M145.652 21.3357C145.652 21.3357 145.652 21.3356 145.652 21.3356L145.84 20.8722M145.652 21.3357C145.446 21.2524 145.23 21.2105 145 21.2105C144.496 21.2105 144.083 21.3814 143.732 21.7318C143.382 22.0821 143.211 22.4951 143.211 22.9999C143.211 23.5048 143.382 23.9177 143.732 24.2681L143.379 24.6216M145.84 20.8722C145.573 20.7644 145.293 20.7105 145 20.7105C144.364 20.7105 143.824 20.933 143.379 21.3782C142.934 21.8234 142.711 22.364 142.711 22.9999C142.711 23.6359 142.934 24.1765 143.379 24.6216M143.379 24.6216L143.732 24.2681C144.083 24.6184 144.496 24.7894 145 24.7894C145.23 24.7894 145.445 24.7473 145.652 24.6635L145.653 24.6632C145.867 24.5766 146.06 24.4573 146.234 24.304L146.504 24.0653L146.816 24.2467L152.197 27.3756L152.548 27.5801L152.419 27.9659C152.406 28.0073 152.393 28.0616 152.384 28.1313M143.379 24.6216L152.384 28.1313" fill="#00406E" stroke="#2A5C81"/>
</g>
</g>
</g>
</svg>
